<?xml version="1.0" encoding="UTF-8"?>
<svg width="185px" height="200px" viewBox="0 0 185 200" version="1.1" xmlns="http://www.w3.org/2000/svg" xmlns:xlink="http://www.w3.org/1999/xlink">
    <title>B5B7508E-21E6-4B0A-8987-989E2812FA3A</title>
    <g id="V1" stroke="none" stroke-width="1" fill="none" fill-rule="evenodd">
        <g id="Magic-Link-Confirmation-Resend" transform="translate(-95.000000, -285.000000)" fill-rule="nonzero">
            <g id="Group-21" transform="translate(95.000000, 285.000000)">
                <polygon id="Path" fill="#76AAFF" points="4.08592365e-13 71.104 93.3445939 -2.13998753e-14 184.996007 71.104"></polygon>
                <rect id="Rectangle" fill="#4A6CDA" x="8.17184729e-13" y="71.104" width="185" height="128.892235"></rect>
                <rect id="Rectangle" fill="#F4F4F4" x="17.5827271" y="13.4550588" width="151.51974" height="174.430118"></rect>
                <polygon id="Path" fill="#648EEA" points="0 71.104 0 199.996235 184.992013 199.996235 184.992013 71.104 92.3502493 150.324706"></polygon>
                <polygon id="Path" fill="#4A6CDA" points="4.08592365e-13 200 93.3445939 121.242353 184.996007 200"></polygon>
                <ellipse id="Oval" fill="#37C5AB" cx="93.368554" cy="76.0470588" rx="36.7388348" ry="34.6352941"></ellipse>
                <path d="M87.9655492,91.7157647 L73.1901483,77.7863529 C72.8115327,77.4255133 72.8115327,76.8446044 73.1901483,76.4837647 L77.4590412,72.4630588 C77.6412376,72.2899407 77.8892124,72.1925694 78.1478943,72.1925694 C78.4065763,72.1925694 78.654551,72.2899407 78.8367475,72.4630588 L87.9775293,81.0804706 C88.3602842,81.4374079 88.976474,81.4374079 89.359229,81.0804706 L111.518337,60.1901176 C111.701217,60.0167733 111.949853,59.9193105 112.209187,59.9193105 C112.468521,59.9193105 112.717156,60.0167733 112.900037,60.1901176 L117.16893,64.2108235 C117.547545,64.5716632 117.547545,65.1525721 117.16893,65.5134118 L89.3472489,91.7157647 C89.1643685,91.889109 88.9157333,91.9865719 88.6563991,91.9865719 C88.3970648,91.9865719 88.1484297,91.889109 87.9655492,91.7157647 Z" id="Path" fill="#FFFFFF"></path>
            </g>
        </g>
    </g>
</svg>